<svg width="300" height="300" viewBox="0 0 300 300" fill="none" xmlns="http://www.w3.org/2000/svg">
<circle cx="155.5" cy="147.5" r="12.5" fill="#DD0149"/>
<path d="M39.6748 63.8122C35.3226 60.4122 29.0076 61.1668 25.905 65.7358C12.0517 86.1371 3.41195 109.687 0.822415 134.314C-2.11647 162.264 2.85568 190.477 15.1722 215.738C27.4887 240.999 46.6541 262.292 70.4841 277.19C91.4814 290.317 115.356 298.013 139.961 299.664C145.471 300.033 149.955 295.523 149.957 290L149.963 270.597C149.965 265.075 145.48 260.643 139.979 260.143C122.765 258.576 106.107 252.991 91.3717 243.779C73.8014 232.794 59.6705 217.095 50.5893 198.47C41.5082 179.844 37.8421 159.042 40.009 138.435C41.8263 121.151 47.685 104.588 57.0531 90.0612C60.0463 85.4197 59.317 79.157 54.9648 75.757L39.6748 63.8122Z" fill="#00A656"/>
<path d="M239.716 163.147C245.16 164.077 248.869 169.264 247.401 174.588C241.714 195.208 229.533 213.556 212.534 226.826C192.896 242.156 168.244 249.604 143.403 247.711C118.562 245.819 95.3218 234.722 78.2333 216.593C61.1448 198.465 51.4383 174.611 51.0145 149.702C50.5907 124.792 59.48 100.622 75.9419 81.9225C92.4038 63.2233 115.253 51.3422 140.015 48.6055C164.777 45.8687 189.669 52.4735 209.817 67.1265C227.226 79.7877 238.205 95.1124 246.076 114.205C248.171 119.286 245.39 124.97 240.205 126.792L224.8 132.205C219.086 134.213 212.931 130.669 210.485 125.128C205.641 114.157 197.32 104.362 187.782 97.4248C175.182 88.2613 159.616 84.1309 144.13 85.8423C128.645 87.5538 114.356 94.9838 104.061 106.678C93.7667 118.371 88.2076 133.487 88.4727 149.064C88.7377 164.642 94.8078 179.559 105.494 190.896C116.181 202.233 130.714 209.172 146.249 210.356C161.784 211.54 177.201 206.882 189.481 197.295C199.117 189.773 206.278 179.641 210.182 168.207C211.967 162.98 217.058 159.279 222.502 160.208L239.716 163.147Z" fill="#035891"/>
<path d="M279.996 113.557C285.503 112.051 288.657 106.235 286.669 100.883C280.069 83.1117 272.041 68.1987 260.63 52.9474C257.451 48.6979 251.445 47.9282 247.148 51.0427L235.106 59.7701C230.264 63.2793 229.607 70.2012 233.3 74.9048C242.24 86.294 247.749 97.2806 253.064 111.281C254.929 116.192 260.18 118.977 265.247 117.591L279.996 113.557Z" fill="#FA7401"/>
<path d="M55.1567 119.5L126.645 119C132.45 119 137.157 123.465 137.157 128.973V134.956C137.157 140.464 132.45 144.929 126.645 144.929L51 145C51 143.5 51.3047 139.367 51.5 138L52 133.5L52.5 130.5C52.5 130.5 53.3433 126 54 123.5C54.6567 121 55.1567 119.5 55.1567 119.5Z" fill="#FFBF05"/>
<path d="M146.001 142.16L242.5 106L246.439 114.029C248.36 119.207 245.72 124.962 240.542 126.883L152.459 159.565L146.001 142.16Z" fill="#DD0149"/>
</svg>
